<svg width="132" height="34" viewBox="0 0 132 34" fill="none" xmlns="http://www.w3.org/2000/svg">
<g clip-path="url(#clip0_1_75)">
<path d="M0 14.7532L1.6709 12.673C2.91214 13.7968 4.2966 14.6576 6.06299 14.6576C7.66228 14.6576 8.68869 13.7729 8.68869 12.5296V12.5057C8.68869 11.453 8.13968 10.7596 5.49011 9.77989C2.31539 8.58438 0.668361 7.41278 0.668361 4.73484V4.6864C0.668361 1.93673 2.8644 0 5.96812 0C7.90159 0 9.69184 0.622279 11.2195 1.96064L9.64349 4.08865C8.49773 3.15553 7.23262 2.51057 5.8959 2.51057C4.39208 2.51057 3.46115 3.34743 3.46115 4.4473V4.47121C3.46115 5.64281 4.08177 6.26448 6.92231 7.36435C10.0254 8.55986 11.4582 9.85162 11.4582 12.2898V12.3377C11.4582 15.2786 9.1667 17.1675 6.03973 17.1675C3.89081 17.1675 1.81412 16.4263 0 14.7532Z" fill="white"/>
<path d="M20.7191 0.119568H23.3925L29.5271 16.953H26.6388L25.2544 13.0078H18.7617L17.3773 16.953H14.5845L20.7191 0.119568ZM24.3957 10.545L22.0087 3.82565L19.6217 10.545H24.3957Z" fill="white"/>
<path d="M30.6489 0.21521H33.6565L37.7622 12.8643L41.8678 0.21521H44.78L39.0034 17.0486H36.4487L30.6489 0.21521Z" fill="white"/>
<path d="M88.6998 0.21521H99.1794V2.7736H91.4688V7.48453H98.2956V10.019H91.4688V16.953H88.6992L88.6998 0.21521Z" fill="white"/>
<path d="M102.472 14.7532L104.143 12.673C105.384 13.7968 106.769 14.6576 108.535 14.6576C110.134 14.6576 111.161 13.7729 111.161 12.5296V12.5057C111.161 11.453 110.612 10.7596 107.962 9.77989C104.787 8.58438 103.141 7.41278 103.141 4.73484V4.6864C103.141 1.93673 105.337 0 108.44 0C110.373 0 112.163 0.622279 113.691 1.96064L112.116 4.08865C110.971 3.15553 109.705 2.51057 108.369 2.51057C106.865 2.51057 105.933 3.34743 105.933 4.4473V4.47121C105.933 5.64281 106.555 6.26448 109.394 7.36435C112.498 8.55986 113.93 9.85162 113.93 12.2898V12.3377C113.93 15.2786 111.638 17.1675 108.512 17.1675C106.363 17.1675 104.287 16.4263 102.472 14.7532Z" fill="white"/>
<path d="M123.192 0.119568H125.866L132 16.953H129.112L127.728 13.0078H121.235L119.85 16.953H117.058L123.192 0.119568ZM126.868 10.545L124.481 3.82565L122.094 10.545H126.868Z" fill="white"/>
<path d="M77.2287 13.0292L72.4853 0.191905H72.4828V0.189453H58.4864V0.191905H58.4815L53.7087 13.066L53.7051 13.0752C53.7241 13.1549 53.7498 13.2322 53.773 13.3106C54.4805 15.7581 56.0792 17.4489 58.6492 17.4489C61.226 17.4489 62.821 15.7562 63.5273 13.3027C63.5524 13.2132 63.5818 13.1249 63.6026 13.0335V13.0299L59.1175 0.817863H71.8481L67.3336 13.0672C67.3526 13.15 67.3789 13.2291 67.4028 13.31C68.1097 15.7575 69.709 17.4483 72.2772 17.4483C74.8533 17.4483 76.4508 15.7556 77.1558 13.3021C77.1809 13.2132 77.2097 13.1261 77.2311 13.0348L77.2287 13.0292ZM58.6498 16.9002C56.3791 16.9002 55.0277 15.4411 54.3416 13.3094L62.9611 13.3027C62.2769 15.4411 60.9261 16.9002 58.6498 16.9002ZM54.5007 12.7104L58.6688 1.31936L62.8222 12.7025L54.5007 12.7104ZM72.2974 1.31936L76.4483 12.7025L68.125 12.7104L72.2974 1.31936ZM72.2772 16.9002C70.0071 16.9002 68.6569 15.4411 67.9708 13.3094L76.5879 13.3027C75.9042 15.4411 74.5558 16.9002 72.2772 16.9002Z" fill="white"/>
<path d="M0.177734 32.8661L0.560879 32.4014C1.03338 32.8416 1.5218 33.1107 2.16507 33.1107C2.84934 33.1107 3.30532 32.6945 3.30532 32.1482V32.1402C3.30532 31.6663 3.07702 31.3647 2.04327 30.9981C0.86262 30.5579 0.398073 30.1336 0.398073 29.3256V29.3096C0.398073 28.4532 1.11479 27.8002 2.11671 27.8002C2.77651 27.8002 3.32185 28.0044 3.82679 28.4452L3.46017 28.9179C3.03663 28.5506 2.58861 28.363 2.09223 28.363C1.4404 28.363 1.01747 28.7628 1.01747 29.2526V29.2686C1.01747 29.7664 1.27025 30.0515 2.34501 30.4432C3.50118 30.8755 3.92472 31.3408 3.92472 32.0992V32.1151C3.92472 33.0286 3.17556 33.6729 2.15772 33.6729C1.42387 33.6736 0.772649 33.421 0.177734 32.8661Z" fill="white"/>
<path d="M5.31445 31.5125V31.4548C5.31445 30.1661 6.14501 29.2606 7.20386 29.2606C7.80612 29.2606 8.21313 29.5138 8.53936 29.8394L8.18926 30.2802C7.93648 30.0276 7.63535 29.7989 7.19529 29.7989C6.48714 29.7989 5.91671 30.4684 5.91671 31.4548V31.4953C5.91671 32.4989 6.50306 33.1433 7.21977 33.1433C7.63535 33.1433 7.94444 32.9305 8.21313 32.6534L8.55527 33.0452C8.23761 33.4044 7.81407 33.6816 7.18733 33.6816C6.12053 33.6822 5.31445 32.8006 5.31445 31.5125Z" fill="white"/>
<path d="M10.0361 27.7028H10.6225V30.0361C10.8587 29.6119 11.2413 29.2606 11.8766 29.2606C12.7396 29.2606 13.261 29.8565 13.261 30.8105V33.592H12.6747V30.9736C12.6747 30.2152 12.3166 29.7909 11.6972 29.7909C11.0785 29.7909 10.6225 30.2802 10.6225 31.006V33.592H10.0361V27.7028Z" fill="white"/>
<path d="M14.6104 29.3421H15.2291L16.1656 32.7282L17.1345 29.3348H17.6314L18.6003 32.7282L19.5447 29.3421H20.139L18.8684 33.6245H18.339L17.3781 30.3133L16.4092 33.6245H15.8797L14.6104 29.3421Z" fill="white"/>
<path d="M21.2373 31.5039V31.4634C21.2373 30.1668 21.9944 29.2606 22.9878 29.2606C24.0546 29.2606 24.6899 30.1741 24.6899 31.4548C24.6899 31.5125 24.6899 31.6259 24.6813 31.6995H21.831C21.8959 32.6375 22.4743 33.1598 23.142 33.1598C23.6059 33.1598 23.9481 32.9643 24.2413 32.67L24.5748 33.0452C24.1917 33.4369 23.7522 33.6816 23.1169 33.6816C22.0838 33.6822 21.2373 32.8496 21.2373 31.5039ZM24.1035 31.2427C24.0625 30.4353 23.68 29.7744 22.9878 29.7744C22.361 29.7744 21.8885 30.3531 21.8316 31.2427H24.1035Z" fill="white"/>
<path d="M26.2593 27.7757H26.9105V28.4697H26.2593V27.7757ZM26.2917 29.3421H26.8781V33.5926H26.2917V29.3421Z" fill="white"/>
<path d="M28.5059 33.2089L30.8598 29.848H28.5958V29.3422H31.609V29.726L29.2556 33.0863H31.601V33.5921H28.5059V33.2089Z" fill="white"/>
<path d="M32.8442 31.5039V31.4634C32.8442 30.1668 33.602 29.2606 34.5953 29.2606C35.6621 29.2606 36.2974 30.1741 36.2974 31.4548C36.2974 31.5125 36.2974 31.6259 36.2895 31.6995H33.4392C33.504 32.6375 34.0824 33.1598 34.7502 33.1598C35.2141 33.1598 35.5562 32.9643 35.8494 32.67L36.183 33.0452C35.8005 33.4369 35.3604 33.6816 34.7251 33.6816C33.6913 33.6822 32.8442 32.8496 32.8442 31.5039ZM35.7111 31.2427C35.6707 30.4353 35.2882 29.7744 34.5953 29.7744C33.9686 29.7744 33.4961 30.3531 33.4392 31.2427H35.7111Z" fill="white"/>
<path d="M37.8506 29.3421H38.4369V30.2801C38.6897 29.6848 39.2026 29.2526 39.8948 29.2851V29.9215H39.8624C39.0729 29.9215 38.4369 30.4757 38.4369 31.5694V33.5926H37.8506V29.3421Z" fill="white"/>
<path d="M41.335 27.7757H41.9868V28.4697H41.335V27.7757ZM41.3674 29.3421H41.9537V33.5926H41.3674V29.3421Z" fill="white"/>
<path d="M43.4351 33.0703L43.7441 32.6381C44.1432 32.9722 44.5582 33.1518 44.9817 33.1518C45.4456 33.1518 45.7713 32.8907 45.7713 32.4916V32.483C45.7713 32.1078 45.4212 31.9116 44.8513 31.6755C44.1756 31.3819 43.6383 31.1127 43.6383 30.4518V30.4359C43.6383 29.7425 44.2001 29.2772 44.9578 29.2772C45.4383 29.2772 45.9353 29.4654 46.2933 29.7339L46.0087 30.1827C45.6831 29.946 45.3165 29.783 44.9419 29.783C44.4939 29.783 44.2087 30.0441 44.2087 30.3789V30.3948C44.2087 30.7535 44.5753 30.9331 45.1537 31.1777C45.8539 31.4879 46.3423 31.781 46.3423 32.426V32.4419C46.3423 33.2003 45.7315 33.6656 44.9658 33.6656C44.4449 33.6656 43.8831 33.4614 43.4351 33.0703Z" fill="white"/>
<path d="M47.6846 31.5125V31.4548C47.6846 30.1661 48.5151 29.2606 49.574 29.2606C50.1768 29.2606 50.5839 29.5138 50.9101 29.8394L50.56 30.2802C50.3072 30.0276 50.0061 29.7989 49.5666 29.7989C48.8579 29.7989 48.2881 30.4684 48.2881 31.4548V31.4953C48.2881 32.4989 48.8744 33.1433 49.5911 33.1433C50.0067 33.1433 50.3158 32.9305 50.5851 32.6534L50.9272 33.0452C50.6096 33.4044 50.186 33.6816 49.5593 33.6816C48.4906 33.6822 47.6846 32.8006 47.6846 31.5125Z" fill="white"/>
<path d="M52.4053 27.7028H52.9916V30.0361C53.2279 29.6119 53.611 29.2606 54.2457 29.2606C55.1093 29.2606 55.6302 29.8565 55.6302 30.8105V33.592H55.0444V30.9736C55.0444 30.2152 54.6858 29.7909 54.067 29.7909C53.4476 29.7909 52.9916 30.2802 52.9916 31.006V33.592H52.4053V27.7028Z" fill="white"/>
<path d="M57.1592 31.5039V31.4634C57.1592 30.1668 57.9169 29.2606 58.9103 29.2606C59.9771 29.2606 60.6124 30.1741 60.6124 31.4548C60.6124 31.5125 60.6124 31.6259 60.6044 31.6995H57.7541C57.819 32.6375 58.3974 33.1598 59.0651 33.1598C59.529 33.1598 59.8712 32.9643 60.1644 32.67L60.4979 33.0452C60.1154 33.4369 59.6753 33.6816 59.04 33.6816C58.0063 33.6822 57.1592 32.8496 57.1592 31.5039ZM60.026 31.2427C59.9856 30.4353 59.6031 29.7744 58.9103 29.7744C58.2835 29.7744 57.811 30.3531 57.7541 31.2427H60.026Z" fill="white"/>
<path d="M62.1655 29.3421H62.7519V30.2801C63.0047 29.6848 63.5175 29.2526 64.2098 29.2851V29.9215H64.1773C63.3872 29.9215 62.7519 30.4757 62.7519 31.5694V33.5926H62.1655V29.3421Z" fill="white"/>
<path d="M70.1926 27.8493H70.7948L72.9694 33.592H72.3182L71.7643 32.0912H69.1992L68.6453 33.592H68.0186L70.1926 27.8493ZM71.5605 31.5364L70.4857 28.6408L69.4024 31.5364H71.5605Z" fill="white"/>
<path d="M74.4497 29.3422H75.0361V30.0362C75.2723 29.6119 75.6548 29.2606 76.2901 29.2606C77.1531 29.2606 77.6746 29.8565 77.6746 30.8105V33.592H77.0883V30.9736C77.0883 30.2152 76.7302 29.7909 76.1108 29.7909C75.492 29.7909 75.0361 30.2802 75.0361 31.0061V33.592H74.4497V29.3422Z" fill="white"/>
<path d="M79.0239 29.3421H79.6433L80.5798 32.7282L81.5486 29.3348H82.0456L83.0145 32.7282L83.9595 29.3421H84.5538L83.2832 33.6245H82.7544L81.7935 30.3133L80.8246 33.6245H80.2952L79.0239 29.3421Z" fill="white"/>
<path d="M85.6421 32.3603V32.3272C85.6421 31.4542 86.2694 30.957 87.2059 30.957C87.6539 30.957 87.9795 31.0305 88.2972 31.128V30.8754C88.2972 30.19 87.8981 29.8228 87.2138 29.8228C86.7903 29.8228 86.4237 29.9534 86.1299 30.1085L85.9426 29.6272C86.3417 29.4316 86.7573 29.2845 87.2787 29.2845C87.7916 29.2845 88.1907 29.431 88.4673 29.7087C88.7281 29.9699 88.8743 30.3611 88.8743 30.8595V33.592H88.2966V32.9716C88.0438 33.3713 87.6282 33.6815 87.0015 33.6815C86.2933 33.6821 85.6421 33.2009 85.6421 32.3603ZM88.3051 32.1157V31.5854C88.037 31.4879 87.6949 31.4143 87.2793 31.4143C86.603 31.4143 86.2284 31.765 86.2284 32.3033V32.3278C86.2284 32.8581 86.6275 33.1923 87.1324 33.1923C87.7837 33.2009 88.3051 32.7355 88.3051 32.1157Z" fill="white"/>
<path d="M91.2597 27.7028H90.6733V33.592H91.2597V27.7028Z" fill="white"/>
<path d="M93.3104 32.605V29.8639H92.7969V29.3415H93.3104V28.1019H93.8967V29.3415H95.0046V29.8639H93.8967V32.5075C93.8967 32.9556 94.1403 33.1193 94.507 33.1193C94.6704 33.1193 94.8332 33.0783 95.0039 33.0047V33.5105C94.816 33.6 94.6128 33.657 94.3686 33.657C93.767 33.6576 93.3104 33.3633 93.3104 32.605Z" fill="white"/>
<path d="M96.1758 33.0703L96.4855 32.6381C96.8839 32.9722 97.2995 33.1518 97.723 33.1518C98.187 33.1518 98.5126 32.8907 98.5126 32.4916V32.483C98.5126 32.1078 98.1625 31.9116 97.5927 31.6755C96.9164 31.3819 96.3796 31.1127 96.3796 30.4518V30.4359C96.3796 29.7425 96.9415 29.2772 97.6986 29.2772C98.179 29.2772 98.676 29.4654 99.0341 29.7339L98.7488 30.1827C98.4232 29.946 98.0566 29.783 97.6827 29.783C97.2346 29.783 96.9494 30.0441 96.9494 30.3789V30.3948C96.9494 30.7535 97.316 30.9331 97.8944 31.1777C98.5952 31.4879 99.083 31.781 99.083 32.426V32.4419C99.083 33.2003 98.4722 33.6656 97.7065 33.6656C97.185 33.6656 96.6232 33.4614 96.1758 33.0703Z" fill="white"/>
<path d="M100.156 29.3422H100.791L101.98 32.8337L103.185 29.3422H103.804L102.249 33.6245H101.72L100.156 29.3422Z" fill="white"/>
<path d="M104.821 31.5039V31.4634C104.821 30.1668 105.578 29.2606 106.572 29.2606C107.639 29.2606 108.274 30.1741 108.274 31.4548C108.274 31.5125 108.274 31.6259 108.265 31.6995H105.415C105.48 32.6375 106.059 33.1598 106.727 33.1598C107.191 33.1598 107.533 32.9643 107.826 32.67L108.16 33.0452C107.778 33.4369 107.337 33.6816 106.702 33.6816C105.668 33.6822 104.821 32.8496 104.821 31.5039ZM107.688 31.2427C107.648 30.4353 107.265 29.7744 106.572 29.7744C105.946 29.7744 105.473 30.3531 105.416 31.2427H107.688Z" fill="white"/>
<path d="M109.828 29.3421H110.414V30.2801C110.667 29.6848 111.18 29.2526 111.872 29.2851V29.9215H111.839C111.049 29.9215 110.414 30.4757 110.414 31.5694V33.5926H109.828V29.3421Z" fill="white"/>
<path d="M113.881 32.8005V33.592H113.295V27.7028H113.881V30.1582C114.166 29.6769 114.59 29.2606 115.258 29.2606C116.121 29.2606 116.951 30.0116 116.951 31.4223V31.5039C116.951 32.9152 116.121 33.6736 115.258 33.6736C114.581 33.6736 114.158 33.2659 113.881 32.8005ZM116.349 31.5039V31.4389C116.349 30.4034 115.795 29.7909 115.143 29.7909C114.476 29.7909 113.857 30.4353 113.857 31.4303V31.5125C113.857 32.5075 114.476 33.1439 115.143 33.1439C115.811 33.1439 116.349 32.5479 116.349 31.5039Z" fill="white"/>
<path d="M118.277 32.3603V32.3272C118.277 31.4542 118.904 30.957 119.841 30.957C120.289 30.957 120.614 31.0305 120.932 31.128V30.8754C120.932 30.19 120.533 29.8228 119.849 29.8228C119.425 29.8228 119.058 29.9534 118.765 30.1085L118.577 29.6272C118.976 29.4316 119.392 29.2845 119.913 29.2845C120.426 29.2845 120.825 29.431 121.102 29.7087C121.363 29.9699 121.509 30.3611 121.509 30.8595V33.592H120.931V32.9716C120.679 33.3713 120.263 33.6815 119.636 33.6815C118.929 33.6821 118.277 33.2009 118.277 32.3603ZM120.94 32.1157V31.5854C120.672 31.4879 120.33 31.4143 119.914 31.4143C119.238 31.4143 118.863 31.765 118.863 32.3033V32.3278C118.863 32.8581 119.262 33.1923 119.767 33.1923C120.418 33.2009 120.94 32.7355 120.94 32.1157Z" fill="white"/>
<path d="M123.258 29.3422H123.845V30.0362C124.081 29.6119 124.464 29.2606 125.099 29.2606C125.962 29.2606 126.484 29.8565 126.484 30.8105V33.592H125.897V30.9736C125.897 30.2152 125.539 29.7909 124.92 29.7909C124.301 29.7909 123.845 30.2802 123.845 31.0061V33.592H123.258V29.3422Z" fill="white"/>
<path d="M128.029 31.5125V31.4303C128.029 30.019 128.859 29.2606 129.723 29.2606C130.399 29.2606 130.822 29.6683 131.099 30.1336V27.7028H131.686V33.592H131.099V32.7766C130.814 33.2573 130.391 33.6736 129.723 33.6736C128.859 33.6736 128.029 32.9311 128.029 31.5125ZM131.123 31.5039V31.4303C131.123 30.4273 130.513 29.7909 129.845 29.7909C129.168 29.7909 128.632 30.3862 128.632 31.4303V31.4953C128.632 32.5314 129.186 33.1433 129.845 33.1433C130.513 33.1439 131.123 32.5075 131.123 31.5039Z" fill="white"/>
</g>
<defs>
<clipPath id="clip0_1_75">
<rect width="132" height="34" fill="white"/>
</clipPath>
</defs>
</svg>
